<?xml version="1.0" encoding="utf-8"?>
<!-- Svg Vector Icons : http://www.onlinewebfonts.com/icon -->
<!DOCTYPE svg PUBLIC "-//W3C//DTD SVG 1.1//EN" "http://www.w3.org/Graphics/SVG/1.1/DTD/svg11.dtd">
<svg version="1.1" xmlns="http://www.w3.org/2000/svg" xmlns:xlink="http://www.w3.org/1999/xlink" x="0px" y="0px" viewBox="0 0 256 256" enable-background="new 0 0 256 256" xml:space="preserve">
<metadata> Svg Vector Icons : http://www.onlinewebfonts.com/icon </metadata>
<g><g><g><path fill="#000000" d="M104,11.9C73.9,14.2,47,29.9,29.8,55.3L26.5,60l11.5,0.1l11.5,0.1l5.9-5.9c12.7-12.7,26.9-19.9,44.6-22.7c5.8-0.9,18.3-0.7,24.7,0.4c17.5,3.2,32.6,11.6,45.2,25.4l2.6,2.9l11.6-0.1l11.6-0.1l-2.4-3.7C174,26.5,139.2,9.2,104,11.9z"/><path fill="#000000" d="M49.5,96.3l-0.1,26l-1.2,2.1c-0.6,1.1-2.1,2.7-3.1,3.5c-1.8,1.2-2.3,1.4-5.6,1.4c-3.1,0-3.8-0.1-5.5-1.3c-2.2-1.5-3.5-3.4-4.2-6.2l-0.5-1.9h-9.6H10l0.3,2.2c1.3,11,7.1,19.4,16.4,23.8c5.1,2.4,7.8,3.1,13,3.1c8,0,14.8-2.9,20.6-8.8c4.8-4.8,8.3-12.1,8.3-17.4c0-2.5,0.8-1.7,1.1,1.1c1,8.9,7.3,17.7,15.8,21.8c4.7,2.3,8.3,3.2,13,3.2c5.2,0,7.9-0.6,13-3c8.8-4.2,15-12.8,16.2-22.3c0.2-1.4,0.4,3.5,0.4,11.4l0,14h18.8c15.4,0,19.3-0.1,21.5-0.7c10.8-2.8,18.4-12.5,18.4-23.5c0-4.4-1.3-9-3.5-12.4c-1.4-2.2-1.4-2.3-0.6-3.5c1.6-2.4,3-6,3.5-8.6c0.7-3.9,1.2-5,1.2-2.6c0.1,7,6.1,15.8,13.2,19.2c4.2,2.1,7.2,2.6,14.7,2.6c7.8,0,9.4,0.5,10.6,3c0.9,1.9,0.9,2.7,0,4.4c-1.5,2.8-1,2.8-20.8,2.8H187v9.7v9.7h19c15,0,19.5-0.1,21.5-0.7c11.9-3.1,19.9-15.2,18-27.2c-1.1-7-6.2-14.4-12.2-17.6c-4.8-2.5-7.1-3-15.7-3.2c-8.7-0.3-9.5-0.5-10.6-3.2c-0.9-2.1-0.5-3.8,1.2-5.5l1.4-1.3l18.2-0.1l18.2-0.1V80v-9.7l-19.2,0.2c-16.9,0.2-19.6,0.3-21.8,1c-9.5,3.1-16.1,10.7-17.5,20c-0.4,2.9-0.6,2.6-1.4-1.8c-1.2-6.3-6.1-13-12-16.1c-5.5-2.9-5.7-3-26.8-3.1L128,70.4l0,14c0,8.2-0.2,13-0.4,11.7c-1-6.8-3.5-11.5-8.5-16.6c-5.8-5.9-12.4-8.6-20.5-8.6c-5,0-8,0.7-12.9,3c-3.2,1.5-4.6,2.6-7.6,5.6c-5,5-7.7,10.2-8.5,16.6c-0.2,1.8-0.4-2.2-0.4-11.4l0-14.2h-9.7h-9.6L49.5,96.3z M101.2,90.3c1.5,0.4,2.8,1.2,4.3,2.7c3,3,3.3,4.6,3.1,18.2c-0.1,10.8-0.2,11.1-1.3,13.1c-0.6,1.1-2.1,2.7-3.1,3.5c-1.8,1.2-2.4,1.4-5.6,1.4c-3.1,0-3.8-0.1-5.5-1.2c-1-0.7-2.5-2.3-3.2-3.5l-1.3-2.2l-0.1-11.1c-0.2-13.6,0-15.2,3.1-18.2C94.5,90,97.2,89.3,101.2,90.3z M164.6,90.5c3.2,1.5,3.8,5.9,1.1,8.2c-1.4,1.2-1.5,1.2-9.9,1.2h-8.5v-5.1v-5.1h7.9C161.5,89.8,163.4,89.9,164.6,90.5z M164.6,120c3.2,1.5,3.8,5.9,1.1,8.2c-1.4,1.2-1.5,1.2-9.9,1.2h-8.5v-5.1v-5.1h7.9C161.5,119.3,163.4,119.4,164.6,120z"/><path fill="#000000" d="M27.5,160.6c1.7,3,6.5,9.6,10.3,13.9c22.5,26.3,59.8,38.6,93.9,31.1c13.7-3,26.2-8.7,37.5-17.1l4.1-3l29.4,29.4l29.5,29.5l6.8-6.8l6.8-6.8l-29.5-29.5l-29.5-29.5l1.7-2c2.2-2.7,7.3-10.1,7.3-10.6c0-0.2-5.1-0.4-11.4-0.4H173l-4.3,4.5c-11.6,12.4-25.3,20-42.1,23.7c-4.2,0.9-6.1,1-15.4,1c-9.2,0-11.2-0.1-15.3-1C79,183.4,63.1,174.3,53,162.7l-3.2-3.7l-11.7,0l-11.7,0L27.5,160.6z"/></g></g></g>
</svg>